<svg xmlns:xlink="http://www.w3.org/1999/xlink" xmlns="http://www.w3.org/2000/svg" width="24" height="24" viewBox="0 0 24 24" fill="#9e9e9e" data-testid="show-hide-password-button"><path fill-rule="evenodd" clip-rule="evenodd" d="M4.07 7.392C5.926 5.668 8.658 4 12 4c3.342 0 6.074 1.668 7.93 3.392.934.867 1.672 1.771 2.183 2.538.255.382.462.743.61 1.06.125.269.277.647.277 1.01s-.152.741-.277 1.01a8.247 8.247 0 01-.61 1.06c-.51.767-1.249 1.67-2.183 2.538C18.074 18.332 15.342 20 12 20c-3.342 0-6.074-1.668-7.93-3.392a14.607 14.607 0 01-2.183-2.538 8.247 8.247 0 01-.61-1.06C1.152 12.741 1 12.363 1 12s.152-.741.277-1.01a8.25 8.25 0 01.61-1.06c.51-.767 1.249-1.67 2.183-2.538zM3.02 12c.014.037.036.092.07.165.095.204.247.475.46.796a12.61 12.61 0 001.88 2.181C7.074 16.668 9.342 18 12 18c2.658 0 4.926-1.332 6.57-2.858a12.61 12.61 0 001.88-2.181c.213-.32.365-.592.46-.796.034-.073.056-.128.07-.165a2.192 2.192 0 00-.07-.165 6.275 6.275 0 00-.46-.796 12.609 12.609 0 00-1.88-2.181C16.926 7.332 14.658 6 12 6 9.342 6 7.074 7.332 5.43 8.858a12.61 12.61 0 00-1.88 2.181 6.28 6.28 0 00-.46.796 2.233 2.233 0 00-.07.165z" fill="#9E9E9E"></path><path fill-rule="evenodd" clip-rule="evenodd" d="M8 12a4 4 0 118 0 4 4 0 01-8 0zm4-2a2 2 0 100 4 2 2 0 000-4z" fill="#9E9E9E"></path></svg>