<svg width="24" height="13" viewBox="0 0 24 13" fill="none" xmlns="http://www.w3.org/2000/svg">
<path fill-rule="evenodd" clip-rule="evenodd" d="M11.9999 9C12.5522 9 12.9999 9.44772 12.9999 10V12C12.9999 12.5523 12.5522 13 11.9999 13C11.4477 13 10.9999 12.5523 10.9999 12V10C10.9999 9.44772 11.4477 9 11.9999 9Z" fill="#9E9E9E"/>
<path fill-rule="evenodd" clip-rule="evenodd" d="M16.6725 8.28463C17.2034 8.13221 17.7573 8.43897 17.9097 8.9698L18.4618 10.8924C18.6142 11.4233 18.3074 11.9772 17.7766 12.1296C17.2458 12.282 16.6919 11.9752 16.5394 11.4444L15.9874 9.52179C15.8349 8.99095 16.1417 8.43706 16.6725 8.28463Z" fill="#9E9E9E"/>
<path fill-rule="evenodd" clip-rule="evenodd" d="M20.9691 6.28572C21.4424 6.0011 22.0568 6.15405 22.3414 6.62735L23.3723 8.34157C23.6569 8.81487 23.504 9.42928 23.0307 9.71391C22.5574 9.99853 21.943 9.84558 21.6583 9.37228L20.6275 7.65806C20.3428 7.18476 20.4958 6.57035 20.9691 6.28572Z" fill="#9E9E9E"/>
<path fill-rule="evenodd" clip-rule="evenodd" d="M7.2601 8.28382C7.79603 8.41723 8.12233 8.95984 7.98892 9.49577L7.50571 11.4368C7.3723 11.9728 6.8297 12.2991 6.29377 12.1657C5.75784 12.0323 5.43153 11.4896 5.56495 10.9537L6.04815 9.01264C6.18156 8.47671 6.72417 8.15041 7.2601 8.28382Z" fill="#9E9E9E"/>
<path fill-rule="evenodd" clip-rule="evenodd" d="M2.96881 6.25008C3.45195 6.51765 3.6267 7.12623 3.35912 7.60936L2.39 9.35924C2.12242 9.84238 1.51385 10.0171 1.03071 9.74955C0.547573 9.48198 0.372825 8.8734 0.640399 8.39027L1.60953 6.64039C1.8771 6.15725 2.48567 5.9825 2.96881 6.25008Z" fill="#9E9E9E"/>
<path fill-rule="evenodd" clip-rule="evenodd" d="M1.99988 0C2.55217 0 2.99988 0.447715 2.99988 1C2.99988 0.996299 3.00002 0.9944 3.00002 0.9944C3.00002 0.9944 3.00979 1.07297 3.08246 1.24408C3.15914 1.42464 3.2853 1.65706 3.46986 1.92623C3.8384 2.46373 4.40712 3.10011 5.17512 3.70907C6.70468 4.92189 8.99024 6 11.9999 6C15.0095 6 17.2951 4.92189 18.8246 3.70907C19.5926 3.10011 20.1614 2.46373 20.5299 1.92623C20.7145 1.65706 20.8406 1.42464 20.9173 1.24408C20.99 1.07297 20.9997 0.9944 20.9997 0.9944C20.9997 0.9944 20.9999 0.996299 20.9999 1C20.9999 0.447715 21.4476 0 21.9999 0C22.5522 0 22.9999 0.447715 22.9999 1C22.9999 1.35616 22.8899 1.71563 22.7582 2.0259C22.6192 2.35308 22.4228 2.70231 22.1794 3.05721C21.6921 3.76787 20.9839 4.54939 20.0673 5.27621C18.2275 6.73496 15.5131 8 11.9999 8C8.48668 8 5.77223 6.73496 3.93251 5.27621C3.01587 4.54939 2.30762 3.76787 1.82035 3.05721C1.57701 2.70231 1.38055 2.35308 1.2416 2.0259C1.10983 1.71563 0.999882 1.35616 0.999882 1C0.999882 0.447715 1.4476 0 1.99988 0Z" fill="#9E9E9E"/>
</svg>
