<svg width="15" height="16" viewBox="0 0 15 16" fill="none" xmlns="http://www.w3.org/2000/svg">
<path d="M0.625 2.88H3.125V1.28C3.125 0.574 3.68555 0 4.375 0H10.625C11.3145 0 11.875 0.574 11.875 1.28V2.88H14.375C14.7207 2.88 15 3.166 15 3.52V4.16C15 4.248 14.9297 4.32 14.8438 4.32H13.6641L13.1816 14.78C13.1504 15.462 12.5996 16 11.9336 16H3.06641C2.39844 16 1.84961 15.464 1.81836 14.78L1.33594 4.32H0.15625C0.0703125 4.32 0 4.248 0 4.16V3.52C0 3.166 0.279297 2.88 0.625 2.88ZM4.53125 2.88H10.4688V1.44H4.53125V2.88Z" fill="black"/>
</svg>
