<svg width="56" height="48" viewBox="0 0 56 48" fill="none" xmlns="http://www.w3.org/2000/svg">
<path d="M53.2474 22.4336C51.7344 20.9358 49.7859 20.0106 47.6717 19.7685C47.693 19.4015 47.7037 19.0334 47.7037 18.6667C47.7037 8.37386 39.3299 0 29.037 0C20.6272 0 13.3482 5.53678 11.0787 13.5554C4.80692 14.2366 0 19.5639 0 25.9608C0 32.8226 5.58272 38.4401 12.4445 38.4401H19.7037C20.2764 38.4401 20.7408 37.9758 20.7408 37.403C20.7408 36.8302 20.2764 36.3659 19.7037 36.3659H12.4445C6.72601 36.3659 2.07408 31.679 2.07408 25.9607C2.07408 20.4146 6.40959 15.8475 11.9442 15.5852C12.405 15.5634 12.7953 15.2311 12.9032 14.783C14.7008 7.30548 21.3351 2.07856 29.037 2.07856C38.186 2.07856 45.6296 9.52 45.6296 18.669C45.6296 19.3212 45.5917 19.9779 45.5162 20.6224C45.4817 20.9167 45.5749 21.2451 45.7714 21.4664C45.9683 21.6871 46.2504 21.8474 46.5461 21.8474H46.548C48.5406 21.8474 50.4015 22.5691 51.7884 23.9419C53.1667 25.3065 53.9258 27.1461 53.9258 29.0889C53.9258 33.092 50.6694 36.3659 46.6666 36.3659H38.3703C37.7976 36.3659 37.3332 36.8302 37.3332 37.403C37.3332 37.9758 37.7975 38.4401 38.3703 38.4401H46.6666C51.8128 38.4401 55.9999 34.2182 55.9999 29.0719C56 26.5711 55.0227 24.1907 53.2474 22.4336Z" fill="black"/>
<path fill-rule="evenodd" clip-rule="evenodd" d="M29 23.8519C29.5523 23.8519 30 24.2996 30 24.8519V46.8519C30 47.4042 29.5523 47.8519 29 47.8519C28.4477 47.8519 28 47.4042 28 46.8519V24.8519C28 24.2996 28.4477 23.8519 29 23.8519Z" fill="black"/>
<path fill-rule="evenodd" clip-rule="evenodd" d="M35.7318 31.1191C35.3555 31.5233 34.7228 31.5459 34.3185 31.1696L28.3185 25.5838C27.9143 25.2074 27.8916 24.5747 28.268 24.1704C28.6443 23.7662 29.277 23.7436 29.6813 24.1199L35.6813 29.7058C36.0855 30.0821 36.1082 30.7149 35.7318 31.1191Z" fill="black"/>
<path fill-rule="evenodd" clip-rule="evenodd" d="M22.2682 31.1191C22.6445 31.5233 23.2772 31.5459 23.6815 31.1696L29.6815 25.5838C30.0857 25.2074 30.1084 24.5747 29.732 24.1704C29.3557 23.7662 28.723 23.7436 28.3187 24.1199L22.3187 29.7058C21.9145 30.0821 21.8918 30.7149 22.2682 31.1191Z" fill="black"/>
</svg>
